<mxfile host="app.diagrams.net" modified="2023-06-07T11:58:50.157Z" agent="Mozilla/5.0 (Macintosh; Intel Mac OS X 10_15_7) AppleWebKit/537.36 (KHTML, like Gecko) Chrome/114.0.0.0 Safari/537.36 Edg/114.0.1823.41" etag="Bffv6KobazLdlW8v6jv-" version="21.3.7" type="github">
  <diagram name="Pagina-1" id="a6fILNypSKHGjRCzUjTZ">
    <mxGraphModel dx="1363" dy="880" grid="1" gridSize="10" guides="1" tooltips="1" connect="1" arrows="1" fold="1" page="1" pageScale="1" pageWidth="1169" pageHeight="827" math="0" shadow="0">
      <root>
        <mxCell id="0" />
        <mxCell id="1" parent="0" />
        <mxCell id="C_K-O1zQhy5By7McTLfG-1" value="DATA COLLECTION MARTIJN TRILOGY" style="shape=table;startSize=30;container=1;collapsible=0;childLayout=tableLayout;strokeColor=default;fontSize=16;align=center;" vertex="1" parent="1">
          <mxGeometry x="30" y="100" width="1110" height="650" as="geometry" />
        </mxCell>
        <mxCell id="C_K-O1zQhy5By7McTLfG-2" value="" style="shape=tableRow;horizontal=0;startSize=0;swimlaneHead=0;swimlaneBody=0;strokeColor=inherit;top=0;left=0;bottom=0;right=0;collapsible=0;dropTarget=0;fillColor=none;points=[[0,0.5],[1,0.5]];portConstraint=eastwest;fontSize=14;align=center;labelBorderColor=none;whiteSpace=wrap;" vertex="1" parent="C_K-O1zQhy5By7McTLfG-1">
          <mxGeometry y="30" width="1110" height="139" as="geometry" />
        </mxCell>
        <mxCell id="C_K-O1zQhy5By7McTLfG-17" value="SIGLA (ALTERNATIVE TITLE) " style="shape=partialRectangle;connectable=0;strokeColor=#d79b00;overflow=hidden;fillColor=#ffe6cc;top=0;left=0;bottom=0;right=0;pointerEvents=1;fontSize=14;align=center;labelBorderColor=none;whiteSpace=wrap;" vertex="1" parent="C_K-O1zQhy5By7McTLfG-2">
          <mxGeometry width="370" height="139" as="geometry">
            <mxRectangle width="370" height="139" as="alternateBounds" />
          </mxGeometry>
        </mxCell>
        <mxCell id="C_K-O1zQhy5By7McTLfG-14" value=" REPOSITORY AND SIGNATURE" style="shape=partialRectangle;connectable=0;strokeColor=#6c8ebf;overflow=hidden;fillColor=#dae8fc;top=0;left=0;bottom=0;right=0;pointerEvents=1;fontSize=14;align=center;labelBorderColor=none;whiteSpace=wrap;" vertex="1" parent="C_K-O1zQhy5By7McTLfG-2">
          <mxGeometry x="370" width="370" height="139" as="geometry">
            <mxRectangle width="370" height="139" as="alternateBounds" />
          </mxGeometry>
        </mxCell>
        <mxCell id="C_K-O1zQhy5By7McTLfG-3" value="USED EDITION" style="shape=partialRectangle;connectable=0;strokeColor=#9673a6;overflow=hidden;fillColor=#e1d5e7;top=0;left=0;bottom=0;right=0;pointerEvents=1;fontSize=14;align=center;labelBorderColor=none;whiteSpace=wrap;" vertex="1" parent="C_K-O1zQhy5By7McTLfG-2">
          <mxGeometry x="740" width="370" height="139" as="geometry">
            <mxRectangle width="370" height="139" as="alternateBounds" />
          </mxGeometry>
        </mxCell>
        <mxCell id="C_K-O1zQhy5By7McTLfG-6" value="" style="shape=tableRow;horizontal=0;startSize=0;swimlaneHead=0;swimlaneBody=0;strokeColor=inherit;top=0;left=0;bottom=0;right=0;collapsible=0;dropTarget=0;fillColor=none;points=[[0,0.5],[1,0.5]];portConstraint=eastwest;fontSize=14;align=center;labelBorderColor=none;whiteSpace=wrap;" vertex="1" parent="C_K-O1zQhy5By7McTLfG-1">
          <mxGeometry y="169" width="1110" height="81" as="geometry" />
        </mxCell>
        <mxCell id="C_K-O1zQhy5By7McTLfG-18" value="1. C (Gronings-Zutphens Maerlant Manuscript)" style="shape=partialRectangle;connectable=0;strokeColor=inherit;overflow=hidden;fillColor=none;top=0;left=0;bottom=0;right=0;pointerEvents=1;fontSize=14;align=center;labelBorderColor=none;whiteSpace=wrap;" vertex="1" parent="C_K-O1zQhy5By7McTLfG-6">
          <mxGeometry width="370" height="81" as="geometry">
            <mxRectangle width="370" height="81" as="alternateBounds" />
          </mxGeometry>
        </mxCell>
        <mxCell id="C_K-O1zQhy5By7McTLfG-15" value=" University of Groningen Library HS 405" style="shape=partialRectangle;connectable=0;strokeColor=inherit;overflow=hidden;fillColor=none;top=0;left=0;bottom=0;right=0;pointerEvents=1;fontSize=14;align=center;labelBorderColor=none;whiteSpace=wrap;" vertex="1" parent="C_K-O1zQhy5By7McTLfG-6">
          <mxGeometry x="370" width="370" height="81" as="geometry">
            <mxRectangle width="370" height="81" as="alternateBounds" />
          </mxGeometry>
        </mxCell>
        <mxCell id="C_K-O1zQhy5By7McTLfG-7" value="Staring van den Wildenborch (1834); Meijer (1838)" style="shape=partialRectangle;connectable=0;strokeColor=inherit;overflow=hidden;fillColor=none;top=0;left=0;bottom=0;right=0;pointerEvents=1;fontSize=14;align=center;labelBorderColor=none;whiteSpace=wrap;" vertex="1" parent="C_K-O1zQhy5By7McTLfG-6">
          <mxGeometry x="740" width="370" height="81" as="geometry">
            <mxRectangle width="370" height="81" as="alternateBounds" />
          </mxGeometry>
        </mxCell>
        <mxCell id="C_K-O1zQhy5By7McTLfG-10" value="" style="shape=tableRow;horizontal=0;startSize=0;swimlaneHead=0;swimlaneBody=0;strokeColor=inherit;top=0;left=0;bottom=0;right=0;collapsible=0;dropTarget=0;fillColor=none;points=[[0,0.5],[1,0.5]];portConstraint=eastwest;fontSize=14;align=center;labelBorderColor=none;whiteSpace=wrap;" vertex="1" parent="C_K-O1zQhy5By7McTLfG-1">
          <mxGeometry y="250" width="1110" height="80" as="geometry" />
        </mxCell>
        <mxCell id="C_K-O1zQhy5By7McTLfG-19" value="2. E    " style="shape=partialRectangle;connectable=0;strokeColor=inherit;overflow=hidden;fillColor=none;top=0;left=0;bottom=0;right=0;pointerEvents=1;fontSize=14;align=center;labelBorderColor=none;whiteSpace=wrap;" vertex="1" parent="C_K-O1zQhy5By7McTLfG-10">
          <mxGeometry width="370" height="80" as="geometry">
            <mxRectangle width="370" height="80" as="alternateBounds" />
          </mxGeometry>
        </mxCell>
        <mxCell id="C_K-O1zQhy5By7McTLfG-16" value="Heidelberg University Library HS 200 (olim: HS. 362a, 83)" style="shape=partialRectangle;connectable=0;strokeColor=inherit;overflow=hidden;fillColor=none;top=0;left=0;bottom=0;right=0;pointerEvents=1;fontSize=14;align=center;labelBorderColor=none;whiteSpace=wrap;" vertex="1" parent="C_K-O1zQhy5By7McTLfG-10">
          <mxGeometry x="370" width="370" height="80" as="geometry">
            <mxRectangle width="370" height="80" as="alternateBounds" />
          </mxGeometry>
        </mxCell>
        <mxCell id="C_K-O1zQhy5By7McTLfG-11" value="Mone (1838); Mertens (1978)" style="shape=partialRectangle;connectable=0;strokeColor=inherit;overflow=hidden;fillColor=none;top=0;left=0;bottom=0;right=0;pointerEvents=1;fontSize=14;align=center;labelBorderColor=none;whiteSpace=wrap;" vertex="1" parent="C_K-O1zQhy5By7McTLfG-10">
          <mxGeometry x="740" width="370" height="80" as="geometry">
            <mxRectangle width="370" height="80" as="alternateBounds" />
          </mxGeometry>
        </mxCell>
        <mxCell id="C_K-O1zQhy5By7McTLfG-41" value="" style="shape=tableRow;horizontal=0;startSize=0;swimlaneHead=0;swimlaneBody=0;strokeColor=inherit;top=0;left=0;bottom=0;right=0;collapsible=0;dropTarget=0;fillColor=none;points=[[0,0.5],[1,0.5]];portConstraint=eastwest;fontSize=14;align=center;labelBorderColor=none;whiteSpace=wrap;" vertex="1" parent="C_K-O1zQhy5By7McTLfG-1">
          <mxGeometry y="330" width="1110" height="80" as="geometry" />
        </mxCell>
        <mxCell id="C_K-O1zQhy5By7McTLfG-42" value="3. GE " style="shape=partialRectangle;connectable=0;strokeColor=inherit;overflow=hidden;fillColor=none;top=0;left=0;bottom=0;right=0;pointerEvents=1;fontSize=14;align=center;labelBorderColor=none;whiteSpace=wrap;" vertex="1" parent="C_K-O1zQhy5By7McTLfG-41">
          <mxGeometry width="370" height="80" as="geometry">
            <mxRectangle width="370" height="80" as="alternateBounds" />
          </mxGeometry>
        </mxCell>
        <mxCell id="C_K-O1zQhy5By7McTLfG-43" value="Cologny, Fondation Martin Bodmer Cod. Bodmer 101" style="shape=partialRectangle;connectable=0;strokeColor=inherit;overflow=hidden;fillColor=none;top=0;left=0;bottom=0;right=0;pointerEvents=1;fontSize=14;align=center;labelBorderColor=none;whiteSpace=wrap;" vertex="1" parent="C_K-O1zQhy5By7McTLfG-41">
          <mxGeometry x="370" width="370" height="80" as="geometry">
            <mxRectangle width="370" height="80" as="alternateBounds" />
          </mxGeometry>
        </mxCell>
        <mxCell id="C_K-O1zQhy5By7McTLfG-44" value="Gruijs &amp; Mertens (1975)" style="shape=partialRectangle;connectable=0;strokeColor=inherit;overflow=hidden;fillColor=none;top=0;left=0;bottom=0;right=0;pointerEvents=1;fontSize=14;align=center;labelBorderColor=none;whiteSpace=wrap;" vertex="1" parent="C_K-O1zQhy5By7McTLfG-41">
          <mxGeometry x="740" width="370" height="80" as="geometry">
            <mxRectangle width="370" height="80" as="alternateBounds" />
          </mxGeometry>
        </mxCell>
        <mxCell id="C_K-O1zQhy5By7McTLfG-45" value="" style="shape=tableRow;horizontal=0;startSize=0;swimlaneHead=0;swimlaneBody=0;strokeColor=inherit;top=0;left=0;bottom=0;right=0;collapsible=0;dropTarget=0;fillColor=none;points=[[0,0.5],[1,0.5]];portConstraint=eastwest;fontSize=14;align=center;labelBorderColor=none;whiteSpace=wrap;" vertex="1" parent="C_K-O1zQhy5By7McTLfG-1">
          <mxGeometry y="410" width="1110" height="80" as="geometry" />
        </mxCell>
        <mxCell id="C_K-O1zQhy5By7McTLfG-46" value="4.    K    - Koblenz, Landeshauptarchiv Best. 701 Nr. 262 - Overgaauw (1996)" style="shape=partialRectangle;connectable=0;strokeColor=inherit;overflow=hidden;fillColor=none;top=0;left=0;bottom=0;right=0;pointerEvents=1;fontSize=14;align=center;labelBorderColor=none;whiteSpace=wrap;" vertex="1" parent="C_K-O1zQhy5By7McTLfG-45">
          <mxGeometry width="370" height="80" as="geometry">
            <mxRectangle width="370" height="80" as="alternateBounds" />
          </mxGeometry>
        </mxCell>
        <mxCell id="C_K-O1zQhy5By7McTLfG-47" value="" style="shape=partialRectangle;connectable=0;strokeColor=inherit;overflow=hidden;fillColor=none;top=0;left=0;bottom=0;right=0;pointerEvents=1;fontSize=14;align=center;labelBorderColor=none;whiteSpace=wrap;" vertex="1" parent="C_K-O1zQhy5By7McTLfG-45">
          <mxGeometry x="370" width="370" height="80" as="geometry">
            <mxRectangle width="370" height="80" as="alternateBounds" />
          </mxGeometry>
        </mxCell>
        <mxCell id="C_K-O1zQhy5By7McTLfG-48" value="" style="shape=partialRectangle;connectable=0;strokeColor=inherit;overflow=hidden;fillColor=none;top=0;left=0;bottom=0;right=0;pointerEvents=1;fontSize=14;align=center;labelBorderColor=none;whiteSpace=wrap;" vertex="1" parent="C_K-O1zQhy5By7McTLfG-45">
          <mxGeometry x="740" width="370" height="80" as="geometry">
            <mxRectangle width="370" height="80" as="alternateBounds" />
          </mxGeometry>
        </mxCell>
        <mxCell id="C_K-O1zQhy5By7McTLfG-49" value="" style="shape=tableRow;horizontal=0;startSize=0;swimlaneHead=0;swimlaneBody=0;strokeColor=inherit;top=0;left=0;bottom=0;right=0;collapsible=0;dropTarget=0;fillColor=none;points=[[0,0.5],[1,0.5]];portConstraint=eastwest;fontSize=14;align=center;labelBorderColor=none;whiteSpace=wrap;" vertex="1" parent="C_K-O1zQhy5By7McTLfG-1">
          <mxGeometry y="490" width="1110" height="80" as="geometry" />
        </mxCell>
        <mxCell id="C_K-O1zQhy5By7McTLfG-50" value="5.    G - (Heber-Serrure codex) - Ghent University Library HS 1374 - Gabriël &amp; Kestemont (forthcoming)" style="shape=partialRectangle;connectable=0;strokeColor=inherit;overflow=hidden;fillColor=none;top=0;left=0;bottom=0;right=0;pointerEvents=1;fontSize=14;align=center;labelBorderColor=none;whiteSpace=wrap;" vertex="1" parent="C_K-O1zQhy5By7McTLfG-49">
          <mxGeometry width="370" height="80" as="geometry">
            <mxRectangle width="370" height="80" as="alternateBounds" />
          </mxGeometry>
        </mxCell>
        <mxCell id="C_K-O1zQhy5By7McTLfG-51" value="" style="shape=partialRectangle;connectable=0;strokeColor=inherit;overflow=hidden;fillColor=none;top=0;left=0;bottom=0;right=0;pointerEvents=1;fontSize=14;align=center;labelBorderColor=none;whiteSpace=wrap;" vertex="1" parent="C_K-O1zQhy5By7McTLfG-49">
          <mxGeometry x="370" width="370" height="80" as="geometry">
            <mxRectangle width="370" height="80" as="alternateBounds" />
          </mxGeometry>
        </mxCell>
        <mxCell id="C_K-O1zQhy5By7McTLfG-52" value="" style="shape=partialRectangle;connectable=0;strokeColor=inherit;overflow=hidden;fillColor=none;top=0;left=0;bottom=0;right=0;pointerEvents=1;fontSize=14;align=center;labelBorderColor=none;whiteSpace=wrap;" vertex="1" parent="C_K-O1zQhy5By7McTLfG-49">
          <mxGeometry x="740" width="370" height="80" as="geometry">
            <mxRectangle width="370" height="80" as="alternateBounds" />
          </mxGeometry>
        </mxCell>
        <mxCell id="C_K-O1zQhy5By7McTLfG-53" value="" style="shape=tableRow;horizontal=0;startSize=0;swimlaneHead=0;swimlaneBody=0;strokeColor=inherit;top=0;left=0;bottom=0;right=0;collapsible=0;dropTarget=0;fillColor=none;points=[[0,0.5],[1,0.5]];portConstraint=eastwest;fontSize=14;align=center;labelBorderColor=none;whiteSpace=wrap;" vertex="1" parent="C_K-O1zQhy5By7McTLfG-1">
          <mxGeometry y="570" width="1110" height="80" as="geometry" />
        </mxCell>
        <mxCell id="C_K-O1zQhy5By7McTLfG-54" value="6.    W - Vienna Austrian National Library Cod. 13708 -    Gabriël (forthcoming) " style="shape=partialRectangle;connectable=0;strokeColor=inherit;overflow=hidden;fillColor=none;top=0;left=0;bottom=0;right=0;pointerEvents=1;fontSize=14;align=center;labelBorderColor=none;whiteSpace=wrap;" vertex="1" parent="C_K-O1zQhy5By7McTLfG-53">
          <mxGeometry width="370" height="80" as="geometry">
            <mxRectangle width="370" height="80" as="alternateBounds" />
          </mxGeometry>
        </mxCell>
        <mxCell id="C_K-O1zQhy5By7McTLfG-55" value="" style="shape=partialRectangle;connectable=0;strokeColor=inherit;overflow=hidden;fillColor=none;top=0;left=0;bottom=0;right=0;pointerEvents=1;fontSize=14;align=center;labelBorderColor=none;whiteSpace=wrap;" vertex="1" parent="C_K-O1zQhy5By7McTLfG-53">
          <mxGeometry x="370" width="370" height="80" as="geometry">
            <mxRectangle width="370" height="80" as="alternateBounds" />
          </mxGeometry>
        </mxCell>
        <mxCell id="C_K-O1zQhy5By7McTLfG-56" value="" style="shape=partialRectangle;connectable=0;strokeColor=inherit;overflow=hidden;fillColor=none;top=0;left=0;bottom=0;right=0;pointerEvents=1;fontSize=14;align=center;labelBorderColor=none;whiteSpace=wrap;" vertex="1" parent="C_K-O1zQhy5By7McTLfG-53">
          <mxGeometry x="740" width="370" height="80" as="geometry">
            <mxRectangle width="370" height="80" as="alternateBounds" />
          </mxGeometry>
        </mxCell>
        <mxCell id="C_K-O1zQhy5By7McTLfG-21" value="&amp;nbsp; -&amp;nbsp;&lt;br&gt;7.&amp;nbsp;&amp;nbsp;&amp;nbsp;&amp;nbsp;L -&amp;nbsp;&amp;nbsp;&amp;nbsp;&amp;nbsp;Lyon Bibliothèque Municipal MS 6848&amp;nbsp;&amp;nbsp;&amp;nbsp;&amp;nbsp;- Moors (2022)&lt;br&gt;8.&amp;nbsp;&amp;nbsp;&amp;nbsp;&amp;nbsp;Ant -&amp;nbsp;&amp;nbsp;&amp;nbsp;&amp;nbsp;Antwerp University Library Special Collections MAG-P 64.20&amp;nbsp;&amp;nbsp;&amp;nbsp;&amp;nbsp;- Sleiderink, Moors, &amp;amp; De Schepper (2020)&lt;br&gt;9.&amp;nbsp;&amp;nbsp;&amp;nbsp;&amp;nbsp;Y&amp;nbsp;&amp;nbsp;&amp;nbsp;&amp;nbsp;- Montigny-le-Bretonneux - Archives départementales des Yvelines HS 1F 180 -&amp;nbsp;&amp;nbsp;&amp;nbsp;&amp;nbsp;Bosmans &amp;amp; Sleiderink (2019)&amp;nbsp;&lt;br&gt;10.&amp;nbsp;&amp;nbsp;&amp;nbsp;&amp;nbsp;BR -&amp;nbsp;&amp;nbsp;&amp;nbsp;&amp;nbsp;Brussels Royal Library of Belgium MS 19570&amp;nbsp;&amp;nbsp;&amp;nbsp;&amp;nbsp;- Mertens (1978)&lt;br&gt;11.&amp;nbsp;&amp;nbsp;&amp;nbsp;&amp;nbsp;A - (Comburg manuscript)&amp;nbsp;&amp;nbsp;&amp;nbsp;&amp;nbsp;- Stuttgart Württemberg State Library Cod. Poet. Et phil. 2° 22&amp;nbsp;&amp;nbsp;&amp;nbsp;&amp;nbsp;- Brinkman &amp;amp; Schenkel (1997)&lt;br&gt;12.&amp;nbsp;&amp;nbsp;&amp;nbsp;&amp;nbsp;B - (Haagse Pelgrimage-handschrift)&amp;nbsp;&amp;nbsp;&amp;nbsp;&amp;nbsp;- The Hague National Library of the Netherlands 76 E 6 - Verdam &amp;amp; Leendertz (1918); Mertens (1978)&lt;br&gt;13.&amp;nbsp;&amp;nbsp;&amp;nbsp;&amp;nbsp;Z&amp;nbsp;&amp;nbsp;&amp;nbsp;&amp;nbsp;- Ghent Royal Academy of Dutch Language and Literature KANTL: 6&amp;nbsp;&amp;nbsp;&amp;nbsp;&amp;nbsp;- Gailliard (1905); Mertens (1978)&amp;nbsp;&lt;br&gt;14.&amp;nbsp;&amp;nbsp;&amp;nbsp;&amp;nbsp;F - (Clignett-Serrure-handschrift) - The Hague National Library of the Netherlands 73 F 19 - Verdam &amp;amp; Leendertz (1918); Mertens (1978)&lt;br&gt;15.&amp;nbsp;&amp;nbsp;&amp;nbsp;&amp;nbsp;O&amp;nbsp;&amp;nbsp;&amp;nbsp;&amp;nbsp;- Oxford Bodleian Library - Canonici Miscellanei 278 - Verdam and Leendertz (1918); Mertens (1978)&lt;br&gt;16.&amp;nbsp;&amp;nbsp;&amp;nbsp;&amp;nbsp;D - (Antwerpse druk, Hendrik den Lettersnider) - The Hague National Library of the Netherlands 150 F 40 - Verdam &amp;amp; Leendertz (1918); Mertens (1978)&lt;br&gt;17.&amp;nbsp;&amp;nbsp;&amp;nbsp;&amp;nbsp;D2 - (Print)&amp;nbsp;&amp;nbsp;&amp;nbsp;&amp;nbsp;Leiden University Library LTK 1021 &amp;nbsp;&amp;nbsp;&amp;nbsp;&amp;nbsp;- Breugelmans (1986)" style="text;whiteSpace=wrap;html=1;" vertex="1" parent="1">
          <mxGeometry x="360" y="780" width="560" height="330" as="geometry" />
        </mxCell>
      </root>
    </mxGraphModel>
  </diagram>
</mxfile>
